PathFileType	4	(X/Y/Z)	/Users/itak/Documents/Research/Walk-IL/dataset/trc/00159_00008.trc
DataRate	CameraRate	NumFrames	NumMarkers	Units	OrigDataRate	OrigDataStartFrame	OrigNumFrames
100.000000	100.000000	4	53	mm	100.000000	277	554
Frame#	Time	RPSI			LPSI			L3			STRN			T10			C7			CLAV			RBAK			LBAK			LSHO			LUPA			LAEL			LAOL			LWTS			LWPS			LFRA			LIFD			LHPS			LHTS			RSHO			RUPA			RAEL			RAOL			RWTS			RWPS			RFRA			RIFD			RHTS			RHPS			RBHD			LFHD			RFHD			LBHD			LHIP			RHIP			RASI			LASI			LKNE			LTHI			LANK			LTIP			LTOE			LMT1			LMT5			LHEE			RKNE			RTHI			RANK			RTIP			RTOE			RMT1			RMT5			RHEE			
		X1	Y1	Z1	X2	Y2	Z2	X3	Y3	Z3	X4	Y4	Z4	X5	Y5	Z5	X6	Y6	Z6	X7	Y7	Z7	X8	Y8	Z8	X9	Y9	Z9	X10	Y10	Z10	X11	Y11	Z11	X12	Y12	Z12	X13	Y13	Z13	X14	Y14	Z14	X15	Y15	Z15	X16	Y16	Z16	X17	Y17	Z17	X18	Y18	Z18	X19	Y19	Z19	X20	Y20	Z20	X21	Y21	Z21	X22	Y22	Z22	X23	Y23	Z23	X24	Y24	Z24	X25	Y25	Z25	X26	Y26	Z26	X27	Y27	Z27	X28	Y28	Z28	X29	Y29	Z29	X30	Y30	Z30	X31	Y31	Z31	X32	Y32	Z32	X33	Y33	Z33	X34	Y34	Z34	X35	Y35	Z35	X36	Y36	Z36	X37	Y37	Z37	X38	Y38	Z38	X39	Y39	Z39	X40	Y40	Z40	X41	Y41	Z41	X42	Y42	Z42	X43	Y43	Z43	X44	Y44	Z44	X45	Y45	Z45	X46	Y46	Z46	X47	Y47	Z47	X48	Y48	Z48	X49	Y49	Z49	X50	Y50	Z50	X51	Y51	Z51	X52	Y52	Z52	X53	Y53	Z53	

278	2.77	-652.761962890625	1057.9140625	71.73461151123047	-650.5084838867188	1056.573608398438	-51.33250045776367	-651.57568359375	1097.212890625	11.77255821228027	-383.035400390625	1303.93505859375	11.53123569488525	-683.2597045898438	1261.300048828125	0.3816579282283783	-603.86767578125	1527.050903320312	-11.5168571472168	-406.4895629882812	1419.14794921875	1.787285804748535	-682.4337158203125	1355.304443359375	97.604736328125	-606.4041748046875	1505.418212890625	-112.7902755737305	-525.4740600585938	1490.7353515625	-188.0048980712891	-562.5482788085938	1360.120971679688	-262.3911437988281	-563.4796752929688	1142.373168945312	-272.6279602050781	-609.4425659179688	1132.510986328125	-198.1387023925781	-482.4081115722656	897.90966796875	-237.3475189208984	-561.9794311523438	889.7578125	-284.0442810058594	-560.5144653320312	1032.134643554688	-286.2789306640625	-509.1309509277344	721.8679809570312	-201.2029724121094	-552.7039794921875	817.285888671875	-277.8428344726562	-483.5258483886719	816.62646484375	-253.7811737060547	-550.8370971679688	1505.856689453125	172.2828521728516	-575.9864501953125	1442.217041015625	242.4559020996094	-603.1781616210938	1155.97216796875	309.2990417480469	-602.1550903320312	1145.125732421875	210.6838684082031	-443.3216857910156	942.1461181640625	300.9939575195312	-518.8834228515625	915.83447265625	339.0177612304688	-573.8807373046875	1084.04638671875	329.4554138183594	-409.1290588378906	756.7114868164062	275.5155639648438	-408.5448608398438	850.8773193359375	311.4192504882812	-483.6112976074219	835.9049072265625	337.6679992675781	-544.7327270507812	1677.507446289062	76.99798583984375	-382.78076171875	1733.348388671875	-56.27336120605469	-377.7688293457031	1724.309204101562	72.97248077392578	-557.6643676757812	1694.327026367188	-59.87510299682617	-550.720947265625	991.8551025390625	-170.8220977783203	-499.5733032226562	1019.479675292969	198.0836944580078	-419.5349731445312	1049.20263671875	143.2705383300781	-425.23779296875	1037.436279296875	-117.0502700805664	-399.9032287597656	498.3898315429688	-162.1790771484375	-433.7284240722656	643.477783203125	-175.0408020019531	-783.8895263671875	218.5146789550781	-101.2969665527344	-580.5072631835938	349.6609802246094	-145.2965698242188	-626.5602416992188	70.21762084960938	-107.2293548583984	-653.1983642578125	102.2661743164062	-54.2525749206543	-723.0364379882812	135.4750518798828	-151.2890014648438	-803.431640625	254.7715454101562	-26.79663276672363	-429.8429260253906	519.685546875	144.4309692382812	-421.7320556640625	790.9158935546875	195.6401977539062	-517.8410034179688	36.87413024902344	117.9616775512695	-417.1191711425781	397.8802795410156	120.5662612915039	-295.3187561035156	45.93746185302734	94.02909851074219	-347.360107421875	42.62064743041992	46.25948333740234	-408.5882568359375	36.73608016967773	158.3899078369141	-565.413818359375	38.66698837280273	47.68044281005859	
279	2.78	-643.4913330078125	1058.435668945312	72.73743438720703	-641.5225219726562	1057.134399414062	-50.2559814453125	-642.369140625	1097.754272460938	13.11448001861572	-373.7680969238281	1304.816162109375	11.56390953063965	-674.0189819335938	1261.907348632812	2.326087951660156	-594.8777465820312	1527.651489257812	-10.37087535858154	-397.3112182617188	1420.003662109375	1.727149963378906	-672.5857543945312	1356.063110351562	99.53060913085938	-598.1377563476562	1505.945922851562	-111.5576858520508	-517.7791137695312	1491.27978515625	-187.2722930908203	-555.3720092773438	1360.7578125	-261.4924621582031	-555.9757690429688	1142.9658203125	-272.1066589355469	-601.29150390625	1132.81689453125	-197.2276611328125	-471.0638122558594	899.8150634765625	-237.5309295654297	-551.2403564453125	890.1080322265625	-282.8549194335938	-551.871826171875	1032.577270507812	-285.6773986816406	-493.4671936035156	723.3510131835938	-201.2965698242188	-540.44482421875	817.8385620117188	-276.8182373046875	-470.7777099609375	818.703369140625	-254.0737609863281	-540.6199340820312	1506.917602539062	172.9991607666016	-565.2704467773438	1443.480834960938	243.5099945068359	-591.4749145507812	1157.430297851562	311.4959716796875	-591.1107177734375	1146.2763671875	213.0860595703125	-431.5597229003906	943.6228637695312	302.4864807128906	-506.7429809570312	917.4568481445312	341.3344116210938	-561.9270629882812	1085.617431640625	331.6594848632812	-397.6240234375	758.1005859375	277.3056335449219	-396.6694641113281	852.3646850585938	312.8698120117188	-471.5009765625	837.5339965820312	339.9317016601562	-535.1805419921875	1678.569702148438	77.10802459716797	-373.6130981445312	1733.613647460938	-56.98218154907227	-368.1541442871094	1725.050170898438	72.2720947265625	-548.6107177734375	1694.919677734375	-59.79030609130859	-541.3470458984375	993.2393798828125	-170.2831268310547	-490.6661682128906	1019.375793457031	199.0060729980469	-410.3759155273438	1049.485717773438	144.5762176513672	-416.2191467285156	1038.562866210938	-115.8976669311523	-380.7755432128906	501.5817565917969	-160.4971313476562	-417.6906127929688	646.2048950195312	-174.1717376708984	-756.9984741210938	210.3089752197266	-100.2226333618164	-557.36376953125	347.6272583007812	-143.7422943115234	-593.3040161132812	69.10993194580078	-105.9266738891602	-621.4927978515625	99.65517425537109	-52.95195007324219	-692.5516357421875	130.0395050048828	-150.2167205810547	-778.1241455078125	245.6598052978516	-25.64464378356934	-426.7340698242188	519.0396728515625	145.1995697021484	-414.6303100585938	790.21240234375	196.4268493652344	-517.9319458007812	36.92930603027344	117.7226104736328	-414.9298095703125	397.2899780273438	121.0846786499023	-295.1480407714844	45.62442398071289	94.1295166015625	-347.1072082519531	42.59463119506836	46.34131622314453	-408.6581115722656	36.61840438842773	158.4031982421875	-565.3588256835938	38.63816070556641	47.43941116333008	
280	2.79	-634.2537231445312	1058.85546875	73.69871520996094	-632.5598754882812	1057.598876953125	-49.221923828125	-633.1887817382812	1098.1787109375	14.41036701202393	-364.5056762695312	1305.519409179688	11.56930828094482	-664.7811889648438	1262.395629882812	4.247065544128418	-585.8604125976562	1528.124267578125	-9.250458717346191	-388.1222534179688	1420.684936523438	1.640620708465576	-662.7281494140625	1356.7099609375	101.442741394043	-589.849853515625	1506.33056640625	-110.3590469360352	-510.060546875	1491.661499023438	-186.5588989257812	-548.1732177734375	1361.22412109375	-260.5924682617188	-548.4234619140625	1143.389892578125	-271.6134948730469	-593.0687866210938	1132.92578125	-196.3386535644531	-459.5390014648438	901.6680908203125	-237.7988128662109	-540.2630004882812	890.3370361328125	-281.7303466796875	-543.11669921875	1032.872436523438	-285.1067199707031	-477.4689636230469	724.86865234375	-201.4762878417969	-527.907470703125	818.3036499023438	-275.8479309082031	-457.7916564941406	820.75439453125	-254.4677734375	-530.3605346679688	1507.830688476562	173.6892700195312	-554.521484375	1444.593383789062	244.5283813476562	-579.7781372070312	1158.73486328125	313.6473999023438	-580.0684204101562	1147.282104492188	215.4712829589844	-419.7649536132812	944.9810791015625	303.8877868652344	-494.5612182617188	918.9317626953125	343.5458984375	-549.9660034179688	1087.031494140625	333.7999877929688	-385.9796142578125	759.423095703125	278.9918212890625	-384.7258605957031	853.753173828125	314.2286987304688	-459.3299255371094	839.0274658203125	342.0809936523438	-525.6200561523438	1679.5234375	77.11973571777344	-364.4924621582031	1733.71826171875	-57.84820938110352	-358.5453186035156	1725.7021484375	71.41461181640625	-539.6038208007812	1695.324096679688	-59.78818893432617	-531.9833984375	994.5270385742188	-169.7577056884766	-481.7686157226562	1019.176635742188	199.8713989257812	-401.2608947753906	1049.610961914062	145.7976379394531	-407.2099609375	1039.565307617188	-114.7355651855469	-362.01806640625	504.8108825683594	-158.8047790527344	-401.9002075195312	648.9661865234375	-173.3560485839844	-729.3397827148438	201.2734527587891	-99.19377136230469	-534.1271362304688	345.2574768066406	-142.2283630371094	-559.2916870117188	67.80130767822266	-104.9746780395508	-589.019775390625	96.61660003662109	-51.95222091674805	-661.311279296875	124.1488037109375	-149.3165130615234	-752.0418701171875	235.5111236572266	-24.46000099182129	-423.6956787109375	518.3853149414062	145.9660797119141	-407.5867004394531	789.4534912109375	197.1448669433594	-517.9542846679688	37.02349090576172	117.5349197387695	-412.7839965820312	396.708251953125	121.6152267456055	-294.98779296875	45.31389999389648	94.24909210205078	-346.8893127441406	42.55155181884766	46.42327880859375	-408.7125244140625	36.50106811523438	158.4359283447266	-565.2902221679688	38.65863037109375	47.26191711425781	
281	2.8	-625.0384521484375	1059.166259765625	74.62071990966797	-623.609619140625	1057.970458984375	-48.22603225708008	-624.0289306640625	1098.490600585938	15.65434455871582	-355.24560546875	1306.031616210938	11.55090999603271	-655.5476684570312	1262.76171875	6.133025169372559	-576.8052978515625	1528.4619140625	-8.162734031677246	-378.9206237792969	1421.179321289062	1.527829885482788	-652.8610229492188	1357.23876953125	103.3283233642578	-581.5313720703125	1506.560791015625	-109.203369140625	-502.3045043945312	1491.864624023438	-185.8705902099609	-540.926513671875	1361.4990234375	-259.6919555664062	-540.8027954101562	1143.627807617188	-271.1478576660156	-584.765380859375	1132.822631835938	-195.4846496582031	-447.8583068847656	903.44140625	-238.1238708496094	-529.053955078125	890.4340209960938	-280.6827392578125	-534.2359008789062	1033.001953125	-284.5636291503906	-461.2314758300781	726.4051513671875	-201.7252807617188	-515.1130981445312	818.673583984375	-274.93896484375	-444.6060791015625	822.7503662109375	-254.9420318603516	-520.0560913085938	1508.586303710938	174.3510131835938	-543.7327270507812	1445.54443359375	245.5102233886719	-568.081787109375	1159.875122070312	315.7522888183594	-569.0416259765625	1148.130615234375	217.8168334960938	-407.9394226074219	946.2078857421875	305.2014770507812	-482.341552734375	920.243408203125	345.6449279785156	-537.9954223632812	1088.274169921875	335.8713989257812	-374.1954345703125	760.6627197265625	280.5707702636719	-372.7139892578125	855.0349731445312	315.500244140625	-447.1008605957031	840.37158203125	344.1103820800781	-516.0423583984375	1680.350952148438	77.04073333740234	-355.4159240722656	1733.661987304688	-58.85709762573242	-348.9378662109375	1726.255859375	70.41448974609375	-530.6317138671875	1695.527099609375	-59.86232376098633	-522.6409301757812	995.7031860351562	-169.2381286621094	-472.8010864257812	1018.891174316406	200.6920623779297	-392.1615600585938	1049.597045898438	146.9167785644531	-398.1881713867188	1040.464965820312	-113.5859603881836	-343.6841430664062	508.0453796386719	-157.1350250244141	-386.3938903808594	651.728515625	-172.5942993164062	-700.8963623046875	191.5265045166016	-98.2191162109375	-510.8394165039062	342.600830078125	-140.7857971191406	-524.638671875	66.37399291992188	-104.4027709960938	-555.8526611328125	93.24771881103516	-51.27525329589844	-629.353515625	117.9148101806641	-148.6062164306641	-725.135986328125	224.4490966796875	-23.24505233764648	-420.7063903808594	517.726318359375	146.7159576416016	-400.5813293457031	788.6430053710938	197.7867431640625	-517.9243774414062	37.14633941650391	117.3933792114258	-410.6622619628906	396.1386108398438	122.1453628540039	-294.8310852050781	45.01424407958984	94.38765716552734	-346.7152404785156	42.48757934570312	46.50507736206055	-408.7536315917969	36.38822174072266	158.4914398193359	-565.1998291015625	38.71759033203125	47.14346694946289	
